<?xml version="1.0" standalone="yes"?>
<svg xmlns="http://www.w3.org/2000/svg" width="250" height="100">
<path style="fill:#010101; stroke:none;" d="M0 0L0 33C15.0162 25.0991 28.9937 17.2656 34 0L0 0z"/>
<path style="fill:#9ed163; stroke:none;" d="M28 52C20.4172 63.498 16.5952 72.5418 32 77C25.5071 83.5479 19.2264 90.3696 19 100C29.4276 99.6607 43.9648 79.9632 44 70L30 68C33.8057 55.0622 44.704 44.3179 55 36.2106C62.6084 30.2196 71.9622 27.6596 72 17C60.614 16.9057 46.0893 10.823 41 0C30.8644 0.120125 29.1673 12.3551 21.9853 18.561C16.5053 23.2962 4.57608 27.1771 1.02778 33.213C-5.13266 43.6922 21.1533 50.3775 28 52z"/>
<path style="fill:#010101; stroke:none;" d="M41 0C44.3244 11.7459 61.1405 16.97 72 17C71.8834 26.8426 63.0235 29.2923 56 34.6543C45.4931 42.6757 32.4741 54.2904 30 68L44 70C43.8638 81.5258 30.4925 90.1344 25 100L250 100L250 58C242.425 61.2098 227.582 61.2129 220 58C218.382 63.2594 218.219 66.5256 212 67L213 60C205.362 60 188.246 62.3566 183 57C177.746 59.8904 173.466 60.9169 168 58C161.394 61.6808 146.689 73.7178 143 61L153 60L145 58L138 60L139 49C135.743 51.4791 136.974 55.6448 134.258 58.3966C130.384 62.323 118.224 60.2543 114 58L100 60L102 49L98 60L84 58L68 60L72 34L79 34L78 44L86 47C92.0639 43.0654 101.105 43.7199 108 45L109 39L116 39L115 45C123.874 43.8795 138.359 41.9588 146 47C151.76 43.2018 161.274 46.9328 163 39L169 39L169 45C176.635 44.036 191.916 42.628 198 47L199 47L209 44L210 34L217 34L216 39C219.995 38.3413 221.798 39.0478 223 43L215 44L215 45L222 46L250 45L250 0L41 0M38 13C31.022 22.7054 22.8317 29.3663 13 36C17.3791 38.7687 26.7547 43.749 32 43.3534C38.3883 42.8716 51.8099 28.4295 55 23L38 13z"/>
<path style="fill:#a7ca85; stroke:none;" d="M31 20L32 21L31 20z"/>
<path style="fill:#1c3f95; stroke:none;" d="M72 34L68 60L84 58L98 60L102 49L100 60L114 58C117.424 60.5941 131.699 62.2479 134.825 58.3966C137.028 55.6816 136.547 51.8203 139 49L138 60L145 58L153 60L152 63L143 61C145.136 74.3916 162.431 61.9272 168 58C172.606 61.4898 178.584 60.1768 183 57C186.783 62.8348 206.179 60 213 60L212 67C218.596 66.7834 218.618 63.7158 220 58C225.125 60.735 241.312 61.815 246.852 59.3966C250.904 57.6276 251.84 46.8356 247.682 44.7431C243.844 42.8116 238.207 45.1083 234 44.5008C229.567 43.8606 226.172 44.4797 222 46L215 45L215 44L223 43C222.264 38.5931 220.158 37.8928 216 39L217 34L210 34L209 44L199 47L198 47C193.366 42.2677 175.649 43.7655 169 45L169 39L163 39C160.052 47.0371 151.446 41.897 146 47C139.747 41.5832 122.878 43.5374 115 45L116 39L109 39L108 45C101.565 43.468 91.2268 42.4902 86 47L78 44L79 34L72 34M87 42C98.8163 45.3651 90.6648 32.8844 87 42z"/>
<path style="fill:#010101; stroke:none;" d="M0 41L0 100L19 100C19.5036 90.3134 26.7715 84.4516 32 77C16.6061 70.9053 22.1126 64.6098 28 52L0 41z"/>
<path style="fill:#278501; stroke:none;" d="M123 48L124 49L123 48z"/>
<path style="fill:#010101; stroke:none;" d="M77 56L80 49C76.7277 50.8064 76.1905 52.3816 77 56M121 49L120 56L122 56L123 49L121 49M151 56L154 49C150.728 50.8064 150.19 52.3816 151 56M174 56L177 49C173.728 50.8064 173.19 52.3816 174 56M190.667 49.3333L191.333 49.6667L190.667 49.3333M204 56L208 50L207 49C203.728 50.8064 203.19 52.3816 204 56M228 49L228 56L229 56L230 49L228 49M243.667 49.3333L244.333 49.6667L243.667 49.3333M183 50L184 51L183 50M189 56L192 54L189 56M242 56L245 54L242 56z"/>
<path style="fill:#a7ca85; stroke:none;" d="M99 71L99 76L93 76L95 72L83 72L83 85C92.7458 85 106.564 87.5155 115.867 84.5556C119.238 83.4829 120.046 78.4382 116.683 76.7454C114.014 75.4019 109.934 76.1594 107 76L107 71L99 71M22 72L23 73L22 72M68 85C71.1941 84.9865 73.2708 85.4029 74 82L82 85C79.4498 70.189 71.3 71.1068 68 85M149 85L149 88L154 88C157.062 82.9042 165.7 85 171 85L171 88C177.694 87.4829 179.334 81.8268 181 76L133 76C131.017 70.3616 122.145 70.9899 120.758 77.0432C118.103 88.6234 142.664 85 149 85z"/>
<path style="fill:#010101; stroke:none;" d="M130 81L132 76C127.864 76.3221 124.544 79.1866 130 81z"/>
<path style="fill:#a7ca85; stroke:none;" d="M38 82L39 83L38 82M32 87L33 88L32 87z"/>
</svg>
